<svg width="263" height="37" viewBox="0 0 263 37" fill="none" xmlns="http://www.w3.org/2000/svg">
<path d="M21.2607 14.7867H14.2012V22.1783H21.2607V14.7867Z" fill="#BAC2DE"/>
<path d="M0 36.9661H35.3124V0H0V36.974V36.9661ZM28.253 29.5823H7.05948V7.39164H28.2454V29.5744L28.2605 29.5902L28.253 29.5823Z" fill="#BAC2DE"/>
<path d="M54.3926 5.22626H47.709V31.6756H54.3926V5.22626Z" fill="#BAC2DE"/>
<path d="M66.1204 11.6499H58.1738V5.23438H80.7356V11.6578H72.789V31.6916H66.1054V11.6578L66.1204 11.6499Z" fill="#BAC2DE"/>
<path d="M83.9682 5.22626H90.1104V11.4371H96.0572C98.245 11.4529 99.9666 12.1456 101.215 13.5153C102.463 14.8929 103.087 16.908 103.087 19.5845V31.6756H96.9444V20.5291C96.9444 19.3955 96.6512 18.5139 96.0873 17.8841C95.5009 17.2623 94.7115 16.9395 93.7041 16.9395L90.0954 16.9868V31.6756H83.9531V5.22626H83.9682Z" fill="#BAC2DE"/>
<path d="M114.654 32.2444C112.467 32.2444 110.745 31.5596 109.497 30.182C108.249 28.8045 107.625 26.7814 107.625 24.1129V12.0217H113.767V23.1682C113.767 24.3018 114.06 25.1834 114.624 25.8132C115.203 26.435 116 26.7578 117.008 26.7578C118.015 26.7578 118.865 26.3642 119.571 25.5849C120.263 24.7977 120.609 23.7429 120.609 22.4047V12.0139H126.751V31.6698H120.609V29.0249H120.248C119.917 29.6467 119.473 30.1978 118.947 30.6543C118.489 31.0637 117.91 31.4258 117.218 31.7406C116.526 32.0713 115.662 32.2366 114.654 32.2366V32.2523V32.2444Z" fill="#BAC2DE"/>
<path d="M143.509 32.2455C142.554 32.2455 141.72 32.0881 141.043 31.7496C140.367 31.419 139.765 31.049 139.299 30.6633C138.743 30.2146 138.284 29.6636 137.931 29.0338H137.57V31.6788H131.428V5.2373H137.57V11.5111L143.517 11.4797C144.652 11.4797 145.705 11.7237 146.704 12.1881C147.704 12.6683 148.576 13.3532 149.336 14.2505C150.095 15.1479 150.697 16.2421 151.14 17.5173C151.584 18.7926 151.802 20.2489 151.802 21.8547C151.802 23.4606 151.584 24.9169 151.14 26.1921C150.697 27.4673 150.103 28.5694 149.336 29.4589C148.576 30.3563 147.697 31.0411 146.704 31.5213C145.705 32.0015 144.637 32.2298 143.517 32.2298V32.2455H143.509ZM141.525 26.7589C142.705 26.7589 143.66 26.3417 144.396 25.5072C145.133 24.6807 145.494 23.4606 145.494 21.8469C145.494 20.2331 145.133 19.013 144.396 18.1865C143.66 17.3599 142.705 16.9348 141.525 16.9348H137.562V21.839C137.562 23.4527 137.923 24.6728 138.66 25.4994C139.397 26.3259 140.352 26.751 141.532 26.751" fill="#BAC2DE"/>
<path d="M196.87 34.0206C195.494 34.0206 194.261 33.8789 193.179 33.5877C192.096 33.2964 191.126 32.9264 190.284 32.4699C189.435 32.0133 188.705 31.4859 188.081 30.8876C187.457 30.2894 186.939 29.6754 186.518 29.0377C185.488 27.5736 184.773 25.9048 184.375 24.0549H190.525C190.765 24.8893 191.149 25.6214 191.675 26.259C192.126 26.81 192.765 27.3138 193.6 27.7546C194.434 28.1955 195.524 28.4159 196.87 28.4159C198.75 28.4159 200.08 28.101 200.855 27.4634C201.637 26.8258 202.027 26.0386 202.027 25.094C202.027 24.2123 201.621 23.5196 200.817 23.0158C200.013 22.5199 198.99 22.079 197.765 21.7091C196.532 21.3312 195.209 20.9612 193.795 20.5913C192.382 20.2134 191.059 19.7018 189.826 19.0563C188.593 18.4029 187.578 17.5449 186.773 16.4822C185.969 15.4195 185.563 13.9947 185.563 12.2235C185.563 11.0349 185.811 9.89346 186.3 8.81502C186.788 7.73658 187.487 6.78409 188.405 5.96542C189.314 5.14675 190.435 4.50126 191.758 4.01321C193.081 3.52516 194.592 3.289 196.284 3.289C197.577 3.289 198.727 3.42282 199.734 3.68259C200.742 3.94236 201.629 4.28085 202.411 4.69806C203.193 5.11526 203.862 5.59545 204.433 6.13073C205.005 6.67389 205.486 7.21704 205.884 7.77594C206.809 9.10628 207.448 10.5862 207.786 12.2235H201.637C201.479 11.6174 201.17 11.0585 200.727 10.5626C200.358 10.1454 199.817 9.76751 199.118 9.42115C198.419 9.07479 197.471 8.90161 196.284 8.90161C194.697 8.90161 193.54 9.21648 192.81 9.83836C192.081 10.4602 191.72 11.1923 191.72 12.0189C191.72 12.688 191.961 13.239 192.434 13.6798C192.908 14.1206 193.532 14.5064 194.299 14.8212C195.066 15.144 195.945 15.4195 196.938 15.6714C197.93 15.9233 198.938 16.1988 199.952 16.5058C200.967 16.8128 201.975 17.1749 202.967 17.5842C203.96 18.0014 204.839 18.5289 205.606 19.1586C206.373 19.7962 206.997 20.5755 207.471 21.5044C207.944 22.4333 208.185 23.5589 208.185 24.8893C208.185 26.1094 207.944 27.2744 207.471 28.3765C206.997 29.4864 206.283 30.4547 205.328 31.2812C204.373 32.1156 203.193 32.7769 201.779 33.2728C200.366 33.7687 198.727 34.0206 196.878 34.0206" fill="#BAC2DE"/>
<path d="M213.345 4.11475H226.239C227.93 4.11475 229.457 4.38239 230.825 4.92554C232.186 5.4687 233.351 6.19291 234.313 7.10604C235.276 8.01917 236.027 9.09761 236.554 10.3256C237.08 11.5615 237.351 12.884 237.351 14.293C237.351 15.7021 237.087 17.0324 236.554 18.2604C236.027 19.4963 235.276 20.5669 234.313 21.48C233.344 22.3931 232.186 23.1173 230.825 23.6605C229.464 24.2036 227.93 24.4713 226.239 24.4713H219.292V33.1933H213.338V4.11475H213.345ZM226.043 18.6619C227.735 18.6619 229.021 18.2447 229.893 17.4181C230.765 16.5837 231.201 15.5446 231.201 14.3009C231.201 13.0571 230.765 12.0181 229.893 11.1836C229.021 10.3492 227.735 9.93989 226.043 9.93989H219.3V18.6619H226.043Z" fill="#BAC2DE"/>
<path d="M253.663 33.823C252.55 33.823 251.603 33.6498 250.829 33.3035C250.047 32.9571 249.393 32.5793 248.866 32.162C248.258 31.6661 247.739 31.1072 247.318 30.5011H247.122V33.2011H241.566V4.11475H247.122V11.963H252.167C253.46 11.963 256.482 11.9944 257.61 12.5219C258.73 13.0493 259.414 13.4507 260.256 14.419C261.098 15.3872 261.768 16.568 262.264 17.9534C262.752 19.3388 263 20.8896 263 22.6057C263 24.3217 262.752 25.8725 262.264 27.2579C261.775 28.6433 261.106 29.8162 260.256 30.7923C259.407 31.7606 258.422 32.5084 257.302 33.0358C256.182 33.5632 254.971 33.823 253.671 33.823M252.272 28.8401C253.671 28.8401 254.851 28.297 255.806 27.2185C256.76 26.1401 257.234 24.5972 257.234 22.6057C257.234 20.6141 256.76 19.0712 255.806 17.9928C254.851 16.9143 253.678 16.3712 252.272 16.3712C250.761 16.3712 247.16 16.3712 247.16 16.3712C247.16 16.3712 247.115 20.6141 247.115 22.6135C247.115 24.613 247.596 26.148 248.566 27.2264C249.528 28.3049 250.769 28.848 252.28 28.848" fill="#BAC2DE"/>
<path d="M170.849 0.606323H165.887V36.3444H170.849V0.606323Z" fill="#BAC2DE"/>
<path d="M183.992 24.3279H190.145C190.384 25.1592 190.767 25.8936 191.297 26.5309C192.461 27.9718 194.194 28.6923 196.497 28.6923C199.937 28.6923 201.658 27.5839 201.658 25.3671C201.658 24.8129 201.472 24.3141 201.102 23.8707C200.758 23.4273 200.202 23.0394 199.435 22.7069C198.694 22.3744 197.966 22.1111 197.251 21.9171C196.563 21.6954 195.663 21.4322 194.552 21.1274C194.393 21.0997 194.261 21.072 194.155 21.0443C194.075 21.0165 193.956 20.9888 193.798 20.9611C193.665 20.9057 193.546 20.8641 193.44 20.8364C187.935 19.4509 185.183 16.666 185.183 12.4818C185.183 9.98782 186.149 7.88184 188.081 6.1638C190.039 4.41804 192.646 3.54517 195.901 3.54517C200.136 3.54517 203.338 5.04152 205.508 8.03424C206.408 9.36434 207.043 10.8468 207.414 12.4818H201.261C201.102 11.8998 200.798 11.3456 200.348 10.8191C199.342 9.71072 197.86 9.15651 195.901 9.15651C194.393 9.15651 193.255 9.46133 192.487 10.071C191.72 10.6529 191.336 11.3872 191.336 12.2739C191.336 13.8811 193.083 15.1004 196.576 15.9317C197.476 16.1534 198.032 16.2919 198.244 16.3473C198.482 16.4028 199.024 16.5552 199.871 16.8046C200.745 17.054 201.327 17.2618 201.618 17.4281C201.936 17.5666 202.452 17.8021 203.166 18.1347C203.907 18.4395 204.423 18.7304 204.714 19.0075C205.032 19.2846 205.429 19.6587 205.905 20.1298C206.408 20.5732 206.765 21.0304 206.977 21.5015C207.189 21.9726 207.374 22.5268 207.533 23.1641C207.718 23.7737 207.811 24.4388 207.811 25.1592C207.811 27.7363 206.818 29.9116 204.833 31.685C202.849 33.4308 200.07 34.3037 196.497 34.3037C191.786 34.3037 188.332 32.641 186.136 29.3158C185.104 27.8749 184.389 26.2122 183.992 24.3279Z" fill="#BAC2DE"/>
</svg>
